<svg width="227" height="72" viewBox="0 0 227 72" fill="none" xmlns="http://www.w3.org/2000/svg">
<rect width="227" height="72" rx="15" fill="#2C2C2C"/>
<path d="M29.8047 35.0938H15.5078L12.2969 44H7.65625L20.6875 9.875H24.625L37.6797 44H33.0625L29.8047 35.0938ZM16.8672 31.3906H28.4688L22.6562 15.4297L16.8672 31.3906ZM45.6953 18.6406L45.8359 21.8281C47.7734 19.3906 50.3047 18.1719 53.4297 18.1719C58.7891 18.1719 61.4922 21.1953 61.5391 27.2422V44H57.2031V27.2188C57.1875 25.3906 56.7656 24.0391 55.9375 23.1641C55.125 22.2891 53.8516 21.8516 52.1172 21.8516C50.7109 21.8516 49.4766 22.2266 48.4141 22.9766C47.3516 23.7266 46.5234 24.7109 45.9297 25.9297V44H41.5938V18.6406H45.6953ZM67.0234 31.1094C67.0234 27.2188 67.9453 24.0938 69.7891 21.7344C71.6328 19.3594 74.0469 18.1719 77.0312 18.1719C80 18.1719 82.3516 19.1875 84.0859 21.2188V8H88.4219V44H84.4375L84.2266 41.2812C82.4922 43.4062 80.0781 44.4688 76.9844 44.4688C74.0469 44.4688 71.6484 43.2656 69.7891 40.8594C67.9453 38.4531 67.0234 35.3125 67.0234 31.4375V31.1094ZM71.3594 31.6016C71.3594 34.4766 71.9531 36.7266 73.1406 38.3516C74.3281 39.9766 75.9688 40.7891 78.0625 40.7891C80.8125 40.7891 82.8203 39.5547 84.0859 37.0859V25.4375C82.7891 23.0469 80.7969 21.8516 78.1094 21.8516C75.9844 21.8516 74.3281 22.6719 73.1406 24.3125C71.9531 25.9531 71.3594 28.3828 71.3594 31.6016ZM103.469 37.6484L109.375 18.6406H114.016L103.82 47.9141C102.242 52.1328 99.7344 54.2422 96.2969 54.2422L95.4766 54.1719L93.8594 53.8672V50.3516L95.0312 50.4453C96.5 50.4453 97.6406 50.1484 98.4531 49.5547C99.2812 48.9609 99.9609 47.875 100.492 46.2969L101.453 43.7188L92.4062 18.6406H97.1406L103.469 37.6484ZM132.883 9.875H137.406V34.0391C137.406 37.3047 136.422 39.8594 134.453 41.7031C132.5 43.5469 129.891 44.4688 126.625 44.4688C123.234 44.4688 120.594 43.6016 118.703 41.8672C116.812 40.1328 115.867 37.7031 115.867 34.5781H120.367C120.367 36.5312 120.898 38.0547 121.961 39.1484C123.039 40.2422 124.594 40.7891 126.625 40.7891C128.484 40.7891 129.984 40.2031 131.125 39.0312C132.281 37.8594 132.867 36.2188 132.883 34.1094V9.875ZM143.242 31.0859C143.242 28.6016 143.727 26.3672 144.695 24.3828C145.68 22.3984 147.039 20.8672 148.773 19.7891C150.523 18.7109 152.516 18.1719 154.75 18.1719C158.203 18.1719 160.992 19.3672 163.117 21.7578C165.258 24.1484 166.328 27.3281 166.328 31.2969V31.6016C166.328 34.0703 165.852 36.2891 164.898 38.2578C163.961 40.2109 162.609 41.7344 160.844 42.8281C159.094 43.9219 157.078 44.4688 154.797 44.4688C151.359 44.4688 148.57 43.2734 146.43 40.8828C144.305 38.4922 143.242 35.3281 143.242 31.3906V31.0859ZM147.602 31.6016C147.602 34.4141 148.25 36.6719 149.547 38.375C150.859 40.0781 152.609 40.9297 154.797 40.9297C157 40.9297 158.75 40.0703 160.047 38.3516C161.344 36.6172 161.992 34.1953 161.992 31.0859C161.992 28.3047 161.328 26.0547 160 24.3359C158.688 22.6016 156.938 21.7344 154.75 21.7344C152.609 21.7344 150.883 22.5859 149.57 24.2891C148.258 25.9922 147.602 28.4297 147.602 31.6016ZM193.234 31.6016C193.234 35.4766 192.344 38.5938 190.562 40.9531C188.781 43.2969 186.391 44.4688 183.391 44.4688C180.188 44.4688 177.711 43.3359 175.961 41.0703L175.75 44H171.766V8H176.102V21.4297C177.852 19.2578 180.266 18.1719 183.344 18.1719C186.422 18.1719 188.836 19.3359 190.586 21.6641C192.352 23.9922 193.234 27.1797 193.234 31.2266V31.6016ZM188.898 31.1094C188.898 28.1562 188.328 25.875 187.188 24.2656C186.047 22.6562 184.406 21.8516 182.266 21.8516C179.406 21.8516 177.352 23.1797 176.102 25.8359V36.8047C177.43 39.4609 179.5 40.7891 182.312 40.7891C184.391 40.7891 186.008 39.9844 187.164 38.375C188.32 36.7656 188.898 34.3438 188.898 31.1094ZM213.484 37.2734C213.484 36.1016 213.039 35.1953 212.148 34.5547C211.273 33.8984 209.734 33.3359 207.531 32.8672C205.344 32.3984 203.602 31.8359 202.305 31.1797C201.023 30.5234 200.07 29.7422 199.445 28.8359C198.836 27.9297 198.531 26.8516 198.531 25.6016C198.531 23.5234 199.406 21.7656 201.156 20.3281C202.922 18.8906 205.172 18.1719 207.906 18.1719C210.781 18.1719 213.109 18.9141 214.891 20.3984C216.688 21.8828 217.586 23.7812 217.586 26.0938H213.227C213.227 24.9062 212.719 23.8828 211.703 23.0234C210.703 22.1641 209.438 21.7344 207.906 21.7344C206.328 21.7344 205.094 22.0781 204.203 22.7656C203.312 23.4531 202.867 24.3516 202.867 25.4609C202.867 26.5078 203.281 27.2969 204.109 27.8281C204.938 28.3594 206.43 28.8672 208.586 29.3516C210.758 29.8359 212.516 30.4141 213.859 31.0859C215.203 31.7578 216.195 32.5703 216.836 33.5234C217.492 34.4609 217.82 35.6094 217.82 36.9688C217.82 39.2344 216.914 41.0547 215.102 42.4297C213.289 43.7891 210.938 44.4688 208.047 44.4688C206.016 44.4688 204.219 44.1094 202.656 43.3906C201.094 42.6719 199.867 41.6719 198.977 40.3906C198.102 39.0938 197.664 37.6953 197.664 36.1953H202C202.078 37.6484 202.656 38.8047 203.734 39.6641C204.828 40.5078 206.266 40.9297 208.047 40.9297C209.688 40.9297 211 40.6016 211.984 39.9453C212.984 39.2734 213.484 38.3828 213.484 37.2734Z" fill="#1877F2"/>
<path d="M26.1926 54.0986H20.9894L20.0051 59.75H18.3527L20.5764 46.9531H28.2756L28.0295 48.3418H21.9826L21.2267 52.7188H26.4387L26.1926 54.0986ZM29.5676 59.75H27.9855L29.6379 50.2402H31.2199L29.5676 59.75ZM30.8771 46.7686C31.1467 46.7569 31.3693 46.8389 31.5451 47.0147C31.7267 47.1846 31.8176 47.4102 31.8176 47.6914C31.8117 47.9668 31.7209 48.1924 31.5451 48.3682C31.3752 48.544 31.1525 48.6377 30.8771 48.6494C30.6017 48.6611 30.3762 48.582 30.2004 48.4121C30.0246 48.2422 29.9396 48.0195 29.9455 47.7442C29.9514 47.4688 30.0392 47.2402 30.2092 47.0586C30.3791 46.877 30.6017 46.7803 30.8771 46.7686ZM35.3244 50.2315L35.0959 51.4356C35.9514 50.4981 36.924 50.041 38.0139 50.0645C38.9103 50.0879 39.5725 50.3985 40.0002 50.9961C40.4279 51.5938 40.5861 52.4346 40.4748 53.5186L39.4377 59.75H37.8469L38.8928 53.4922C38.9279 53.2051 38.9309 52.9385 38.9016 52.6924C38.8019 51.8721 38.3185 51.4531 37.4514 51.4356C36.4963 51.418 35.6584 51.9277 34.9377 52.9649L33.76 59.75H32.1691L33.8215 50.2402L35.3244 50.2315ZM42.3469 54.9776C42.4641 54.0108 42.7307 53.1377 43.1467 52.3584C43.5627 51.5791 44.0754 50.9961 44.6848 50.6094C45.2941 50.2227 45.965 50.0381 46.6975 50.0557C47.758 50.0791 48.5725 50.4658 49.1408 51.2158L50.0549 46.25H51.6457L49.3078 59.75H47.8576L48.0246 58.7305C47.2746 59.5508 46.3488 59.9492 45.2473 59.9258C44.3684 59.9024 43.6682 59.5596 43.1467 58.8975C42.6252 58.2295 42.3439 57.336 42.3029 56.2168C42.2853 55.8711 42.3 55.458 42.3469 54.9776ZM43.8762 55.8916C43.8586 56.7295 44.008 57.3799 44.3244 57.8428C44.6408 58.3057 45.1037 58.543 45.7131 58.5547C46.633 58.5957 47.4504 58.1328 48.1652 57.166L48.9211 52.7715C48.5695 51.9043 47.9309 51.459 47.0051 51.4356C46.3781 51.418 45.8244 51.6084 45.3439 52.0069C44.8693 52.3994 44.506 52.9531 44.2541 53.668C44.008 54.377 43.882 55.1182 43.8762 55.8916ZM59.6437 57.3506L63.0275 50.2402H64.7853L59.1428 61.332C58.3576 62.8731 57.3498 63.6348 56.1193 63.6172C55.9025 63.6113 55.5832 63.5586 55.1613 63.459L55.3019 62.1406L55.715 62.1846C56.2189 62.208 56.6525 62.0938 57.0158 61.8418C57.385 61.5957 57.7101 61.1944 57.9914 60.6377L58.5627 59.5479L56.9191 50.2402H58.5803L59.6437 57.3506ZM69.7248 50.0645C70.5217 50.0762 71.2043 50.293 71.7726 50.7149C72.341 51.1367 72.76 51.7197 73.0295 52.4639C73.3049 53.2022 73.3986 54.0108 73.3107 54.8897L73.2932 55.083C73.1818 56.0088 72.9064 56.8467 72.467 57.5967C72.0275 58.3408 71.4592 58.9209 70.7619 59.3369C70.0646 59.7529 69.3 59.9492 68.468 59.9258C67.6769 59.9141 66.9943 59.6973 66.4201 59.2754C65.8517 58.8535 65.4357 58.2793 65.1721 57.5527C64.9084 56.8262 64.8146 56.0264 64.8908 55.1533C64.9787 54.169 65.2453 53.2842 65.6906 52.499C66.1359 51.7139 66.7072 51.1074 67.4045 50.6797C68.1076 50.2461 68.881 50.041 69.7248 50.0645ZM66.4904 55.1621C66.4494 55.5313 66.4494 55.9151 66.4904 56.3135C66.549 57.0049 66.7541 57.5557 67.1057 57.9658C67.4631 58.376 67.9377 58.5899 68.5295 58.6074C69.0568 58.625 69.5432 58.4961 69.9885 58.2207C70.4338 57.9395 70.8088 57.5176 71.1135 56.9551C71.4182 56.3926 71.6144 55.7686 71.7023 55.083C71.7492 54.544 71.758 54.0899 71.7287 53.7207C71.6584 53.0117 71.4445 52.4522 71.0871 52.042C70.7297 51.6319 70.2551 51.4151 69.6633 51.3916C68.843 51.374 68.1457 51.6963 67.5715 52.3584C66.9973 53.0205 66.6428 53.8877 66.508 54.96L66.4904 55.1621ZM80.5353 58.8096C79.7912 59.5772 78.8449 59.9492 77.6965 59.9258C76.7883 59.9024 76.1144 59.5772 75.675 58.9502C75.2414 58.3233 75.0803 57.4678 75.1916 56.3838L76.2111 50.2402H77.8019L76.7736 56.4102C76.7443 56.668 76.7385 56.9199 76.756 57.166C76.7853 57.5879 76.9113 57.919 77.134 58.1592C77.3566 58.3994 77.6672 58.5283 78.0656 58.5459C79.2023 58.5811 80.0812 58.1211 80.7023 57.166L81.8976 50.2402H83.4885L81.8361 59.75H80.3332L80.5353 58.8096ZM90.133 51.6904L89.3859 51.6113C88.3664 51.6113 87.5637 52.0713 86.9777 52.9912L85.8088 59.75H84.218L85.8703 50.2402L87.4084 50.2315L87.1711 51.3389C87.8449 50.4541 88.6389 50.0235 89.5529 50.0469C89.7463 50.0469 89.9982 50.0908 90.3088 50.1787L90.133 51.6904ZM108.318 54.9776C108.435 54.0108 108.701 53.1377 109.117 52.3584C109.533 51.5791 110.046 50.9961 110.655 50.6094C111.265 50.2227 111.936 50.0381 112.668 50.0557C113.729 50.0791 114.543 50.4658 115.112 51.2158L116.026 46.25H117.616L115.279 59.75H113.828L113.995 58.7305C113.245 59.5508 112.32 59.9492 111.218 59.9258C110.339 59.9024 109.639 59.5596 109.117 58.8975C108.596 58.2295 108.315 57.336 108.274 56.2168C108.256 55.8711 108.271 55.458 108.318 54.9776ZM109.847 55.8916C109.829 56.7295 109.979 57.3799 110.295 57.8428C110.612 58.3057 111.074 58.543 111.684 58.5547C112.604 58.5957 113.421 58.1328 114.136 57.166L114.892 52.7715C114.54 51.9043 113.902 51.459 112.976 51.4356C112.349 51.418 111.795 51.6084 111.315 52.0069C110.84 52.3994 110.477 52.9531 110.225 53.668C109.979 54.377 109.853 55.1182 109.847 55.8916ZM123.707 51.6904L122.96 51.6113C121.941 51.6113 121.138 52.0713 120.552 52.9912L119.383 59.75H117.792L119.445 50.2402L120.983 50.2315L120.745 51.3389C121.419 50.4541 122.213 50.0235 123.127 50.0469C123.32 50.0469 123.572 50.0908 123.883 50.1787L123.707 51.6904ZM127.724 59.9258C126.54 59.9024 125.614 59.4658 124.946 58.6162C124.279 57.7666 123.997 56.6797 124.103 55.3555L124.147 54.9776C124.246 54.0342 124.525 53.1729 124.982 52.3936C125.445 51.6143 126.007 51.0283 126.669 50.6358C127.331 50.2373 128.046 50.0469 128.814 50.0645C129.792 50.0879 130.56 50.4131 131.116 51.0401C131.673 51.667 131.978 52.5166 132.03 53.5889C132.048 53.9697 132.036 54.3506 131.995 54.7315L131.899 55.461H125.685C125.579 56.3223 125.72 57.0547 126.107 57.6582C126.499 58.2617 127.082 58.5752 127.856 58.5986C128.793 58.6221 129.66 58.2002 130.457 57.333L131.371 58.1065C130.973 58.6807 130.457 59.1319 129.824 59.46C129.197 59.7822 128.497 59.9375 127.724 59.9258ZM128.735 51.3916C128.078 51.374 127.504 51.5967 127.012 52.0596C126.526 52.5225 126.139 53.211 125.852 54.125L130.475 54.1338L130.51 53.9932C130.604 53.2549 130.484 52.6426 130.15 52.1563C129.821 51.6641 129.35 51.4092 128.735 51.3916ZM138.763 59.75C138.722 59.5801 138.701 59.4131 138.701 59.249L138.728 58.7481C137.855 59.5567 136.929 59.9492 135.95 59.9258C135.112 59.9141 134.43 59.6504 133.903 59.1348C133.381 58.6133 133.144 57.9629 133.191 57.1836C133.249 56.1758 133.689 55.3906 134.509 54.8281C135.335 54.2598 136.419 53.9756 137.761 53.9756L139.422 53.9844L139.528 53.2285C139.586 52.6602 139.475 52.2119 139.194 51.8838C138.918 51.5498 138.502 51.377 137.945 51.3652C137.401 51.3535 136.917 51.4883 136.495 51.7695C136.079 52.0449 135.824 52.4111 135.731 52.8682L134.131 52.877C134.184 52.3203 134.401 51.8281 134.781 51.4004C135.162 50.9668 135.652 50.6328 136.249 50.3985C136.847 50.1582 137.465 50.044 138.104 50.0557C139.094 50.0791 139.864 50.3809 140.415 50.961C140.966 51.5352 141.197 52.2998 141.11 53.2549L140.336 57.9658L140.292 58.6426C140.28 58.9649 140.316 59.2842 140.398 59.6006L140.38 59.75H138.763ZM136.267 58.5195C136.777 58.5313 137.257 58.4111 137.708 58.1592C138.165 57.9014 138.558 57.5469 138.886 57.0957L139.229 55.1358L138.025 55.127C137.023 55.127 136.255 55.2852 135.722 55.6016C135.189 55.918 134.887 56.3662 134.817 56.9463C134.764 57.3916 134.866 57.7637 135.124 58.0625C135.388 58.3555 135.769 58.5078 136.267 58.5195ZM145.68 50.2315L145.478 51.2949C146.275 50.4512 147.238 50.041 148.369 50.0645C148.973 50.0762 149.483 50.2139 149.899 50.4776C150.32 50.7412 150.611 51.1133 150.769 51.5938C151.659 50.5508 152.711 50.041 153.924 50.0645C154.873 50.0879 155.573 50.4072 156.025 51.0225C156.476 51.6377 156.643 52.4639 156.526 53.501L155.48 59.75H153.898L154.935 53.4834C154.97 53.1787 154.97 52.9004 154.935 52.6485C154.823 51.8516 154.302 51.4444 153.37 51.4268C152.79 51.4151 152.263 51.5967 151.788 51.9717C151.32 52.3408 151.018 52.8272 150.883 53.4307L149.802 59.75H148.202L149.257 53.4922C149.333 52.8418 149.234 52.3408 148.958 51.9893C148.689 51.6377 148.267 51.4561 147.693 51.4444C146.702 51.4209 145.914 51.8721 145.328 52.7979L144.124 59.75H142.533L144.186 50.2402L145.68 50.2315ZM165.649 50.2402L163.847 60.8838C163.73 61.7803 163.428 62.4629 162.942 62.9317C162.461 63.4004 161.831 63.6289 161.052 63.6172C160.741 63.6055 160.393 63.5469 160.006 63.4414L160.147 62.1406C160.363 62.1934 160.607 62.2256 160.876 62.2373C161.632 62.2373 162.086 61.7861 162.238 60.8838L164.058 50.2402H165.649ZM164.33 47.7442C164.336 47.4688 164.421 47.2402 164.585 47.0586C164.755 46.877 164.981 46.7803 165.262 46.7686C165.531 46.7569 165.754 46.8418 165.93 47.0235C166.112 47.1992 166.202 47.4219 166.202 47.6914C166.196 47.9668 166.106 48.1924 165.93 48.3682C165.754 48.544 165.529 48.6377 165.253 48.6494C164.989 48.6611 164.77 48.5791 164.594 48.4033C164.418 48.2276 164.33 48.0078 164.33 47.7442ZM171.889 50.0645C172.686 50.0762 173.368 50.293 173.937 50.7149C174.505 51.1367 174.924 51.7197 175.194 52.4639C175.469 53.2022 175.563 54.0108 175.475 54.8897L175.457 55.083C175.346 56.0088 175.07 56.8467 174.631 57.5967C174.192 58.3408 173.623 58.9209 172.926 59.3369C172.229 59.7529 171.464 59.9492 170.632 59.9258C169.841 59.9141 169.158 59.6973 168.584 59.2754C168.016 58.8535 167.6 58.2793 167.336 57.5527C167.072 56.8262 166.979 56.0264 167.055 55.1533C167.143 54.169 167.409 53.2842 167.855 52.499C168.3 51.7139 168.871 51.1074 169.569 50.6797C170.272 50.2461 171.045 50.041 171.889 50.0645ZM168.654 55.1621C168.613 55.5313 168.613 55.9151 168.654 56.3135C168.713 57.0049 168.918 57.5557 169.27 57.9658C169.627 58.376 170.102 58.5899 170.694 58.6074C171.221 58.625 171.707 58.4961 172.153 58.2207C172.598 57.9395 172.973 57.5176 173.278 56.9551C173.582 56.3926 173.779 55.7686 173.866 55.083C173.913 54.544 173.922 54.0899 173.893 53.7207C173.822 53.0117 173.609 52.4522 173.251 52.042C172.894 51.6319 172.419 51.4151 171.827 51.3916C171.007 51.374 170.31 51.6963 169.736 52.3584C169.161 53.0205 168.807 53.8877 168.672 54.96L168.654 55.1621ZM185.292 55.0391C185.175 56.0117 184.908 56.8877 184.492 57.667C184.076 58.4463 183.572 59.0235 182.981 59.3985C182.389 59.7735 181.733 59.9522 181.012 59.9346C179.863 59.9111 179.011 59.4805 178.454 58.6426L178.129 59.75H176.661L179.008 46.25H180.599L179.641 51.2949C180.403 50.4512 181.328 50.041 182.418 50.0645C183.332 50.0879 184.044 50.4248 184.554 51.0752C185.064 51.7256 185.333 52.6221 185.362 53.7647C185.368 54.1397 185.351 54.5029 185.31 54.8545L185.292 55.0391ZM183.78 54.1162C183.798 53.2608 183.654 52.6074 183.35 52.1563C183.045 51.6992 182.579 51.459 181.952 51.4356C180.962 51.4121 180.124 51.9102 179.439 52.9297L178.727 57.0694C179.078 58.0361 179.737 58.5313 180.704 58.5547C181.325 58.5781 181.867 58.3936 182.33 58.001C182.799 57.6084 183.154 57.0606 183.394 56.3574C183.634 55.6485 183.763 54.9014 183.78 54.1162Z" fill="white" fill-opacity="0.9"/>
</svg>
